<?xml version="1.0" standalone="no"?>
<!DOCTYPE svg PUBLIC "-//W3C//DTD SVG 20010904//EN"
 "http://www.w3.org/TR/2001/REC-SVG-20010904/DTD/svg10.dtd">
<svg version="1.0" xmlns="http://www.w3.org/2000/svg"
 width="360.000000pt" height="360.000000pt" viewBox="0 0 360.000000 360.000000"
 preserveAspectRatio="xMidYMid meet">
<metadata>
Created by potrace 1.11, written by Peter Selinger 2001-2013
</metadata>
<g transform="translate(0.000000,360.000000) scale(0.100000,-0.100000)"
fill="#000000" stroke="none">
<path d="M400 2720 c-18 -4 5 -24 117 -102 76 -54 179 -126 228 -161 469 -331
763 -540 827 -586 42 -31 111 -80 152 -109 l76 -54 377 268 c208 147 473 335
590 418 117 83 266 189 332 235 66 47 118 87 116 90 -7 6 -2788 7 -2815 1z"/>
<path d="M360 1666 c0 -742 1 -786 18 -787 9 0 657 -1 1439 -2 l1423 -2 0 788
0 789 -52 -38 c-78 -56 -485 -346 -618 -439 -63 -45 -259 -184 -435 -310 -176
-125 -324 -229 -330 -231 -5 -2 -82 47 -170 110 -280 199 -383 272 -705 501
-173 123 -319 228 -325 232 -5 5 -41 30 -80 57 -38 27 -91 65 -117 83 l-48 35
0 -786z"/>
</g>
</svg>
